<svg width="440" height="440" viewBox="0 0 440 440" fill="none" xmlns="http://www.w3.org/2000/svg">
<path d="M217.853 13.9308C216.432 5.87393 209.432 0 201.251 0H160.309C150.998 0 143.451 7.54768 143.451 16.8582V421.447C143.451 425.838 139.891 429.399 135.499 429.399C131.107 429.399 127.547 425.838 127.547 421.447V250.112C127.547 240.802 119.999 233.254 110.689 233.254H88.5835C79.273 233.254 71.7253 240.802 71.7253 250.112L71.7253 389.64C71.7253 394.031 68.1651 397.591 63.7735 397.591C59.3818 397.591 55.8217 394.031 55.8217 389.64L55.8217 50.3624C55.8217 45.9708 59.3818 42.4106 63.7735 42.4106C68.1651 42.4106 71.7253 45.9708 71.7253 50.3624V189.89C71.7253 199.2 79.273 206.748 88.5835 206.748H110.689C119.999 206.748 127.547 199.2 127.547 189.89L127.547 16.8582C127.547 7.54769 119.999 0 110.689 0H16.8582C7.54769 0 0 7.54768 0 16.8582V423.142C0 432.452 7.5477 440 16.8582 440H187.882C198.363 440 206.304 430.537 204.484 420.214L170.727 228.771C169.965 224.446 172.853 220.322 177.178 219.56C181.503 218.797 185.627 221.685 186.389 226.01L221.665 426.069C223.086 434.126 230.086 440 238.268 440H280.327C289.638 440 297.186 432.452 297.186 423.142L297.186 18.5552C297.186 14.1635 300.746 10.6034 305.137 10.6034C309.529 10.6034 313.089 14.1635 313.089 18.5552L313.089 423.142C313.089 432.452 320.637 440 329.947 440H423.142C432.452 440 440 432.452 440 423.142V250.112C440 240.802 432.452 233.254 423.142 233.254H400.793C391.482 233.254 383.934 240.802 383.934 250.112V389.64C383.934 394.031 380.374 397.591 375.983 397.591C371.591 397.591 368.031 394.031 368.031 389.64V50.3624C368.031 45.9708 371.591 42.4106 375.983 42.4106C380.374 42.4106 383.934 45.9708 383.934 50.3624V189.89C383.934 199.2 391.482 206.748 400.793 206.748H423.142C432.452 206.748 440 199.2 440 189.89V16.8582C440 7.54769 432.452 0 423.142 0H251.636C241.155 0 233.214 9.46338 235.034 19.7856L268.695 210.688C269.458 215.013 266.57 219.137 262.245 219.9C257.92 220.662 253.796 217.774 253.033 213.45L217.853 13.9308Z" fill="white"/>
</svg>
